<?xml version="1.0" encoding="UTF-8"?>
<svg id="Layer_1" data-name="Layer 1" xmlns="http://www.w3.org/2000/svg" viewBox="0 0 147.28 98.86">
  <defs>
    <style>
      .cls-1 {
        fill: #666766;
      }

      .cls-1, .cls-2 {
        stroke-width: 0px;
      }

      .cls-2 {
        fill: #c4161c;
      }
    </style>
  </defs>
  <g>
    <polygon class="cls-1" points="66.15 19.49 70.95 15.41 51.36 9.29 33.52 9.29 66.15 19.49"/>
    <polygon class="cls-1" points="17.96 74.28 0 89.57 138.14 9.29 129.79 9.29 17.96 74.28"/>
  </g>
  <polygon class="cls-2" points="78.35 13.9 33.89 0 138.51 0 .37 80.28 78.35 13.9"/>
  <path class="cls-1" d="M144.61,72.39l-22.45-23.9-85.43,33.92-28.31,16.45,114.33-45.39,24.15,25.71-.03-5.66c-.85-.09-1.65-.48-2.26-1.13Z"/>
  <polygon class="cls-2" points="146.93 9.29 147.28 69.89 123.13 44.18 8.79 89.57 146.93 9.29"/>
</svg>
