<?xml version="1.0" encoding="UTF-8"?><svg id="Layer_1" xmlns="http://www.w3.org/2000/svg" viewBox="0 0 31.25 6.35"><defs><style>.cls-1{fill:#f1f2f2;stroke-width:0px;}</style></defs><path class="cls-1" d="M2.26.65h-.7l-1.55,3.79h.7l.27-.65h1.87l.27.65h.7L2.26.65ZM1.21,3.18l.69-1.68.69,1.68h-1.38Z"/><path class="cls-1" d="M9.2,1.84c0-.78-.43-1.19-1.57-1.19h-1.7v3.79h.65v-1.41h.67l1.11,1.41h.8l-1.12-1.42c.83-.08,1.17-.48,1.17-1.17M6.57,2.43v-1.19h1.05c.7,0,.9.2.9.59s-.19.59-.9.59h-1.05Z"/><polygon class="cls-1" points="17.29 4.43 20.32 4.43 20.32 3.84 17.94 3.84 17.94 2.84 20.05 2.84 20.05 2.24 17.94 2.24 17.94 1.24 20.26 1.24 20.26 .65 17.29 .65 17.29 4.43"/><path class="cls-1" d="M25.7,1.84c0-.78-.43-1.19-1.57-1.19h-1.7v3.78h.65v-1.4h.67l1.11,1.4h.8l-1.12-1.42c.83-.08,1.17-.48,1.17-1.17M23.08,2.43v-1.19h1.05c.7,0,.9.2.9.59s-.19.59-.9.59h-1.05Z"/><path class="cls-1" d="M29.69.65h-.7l-1.55,3.78h.7l.26-.65h1.87l.27.65h.7l-1.55-3.78ZM28.65,3.18l.69-1.68.69,1.68h-1.38Z"/><path class="cls-1" d="M12.97.24c-.2.02-.82.11-1.21.45-.1.09-.21.21-.21.21-.04.05-.1.12-.16.2-.12.16-.19.3-.22.36-.02.05-.07.14-.11.27-.06.16-.09.3-.1.4-.01.05-.02.14-.03.24,0,.06-.01.19,0,.34,0,.07.01.18.04.31.03.16.07.28.09.34.03.1.1.28.22.48.06.11.13.2.18.27.07.09.17.2.3.32.1.09.19.16.27.22.1.07.18.11.25.15.12.06.22.1.28.13.08.03.22.08.39.11.1.02.26.04.45.05.12,0,.22,0,.29-.01.13-.01.23-.03.3-.05.1-.02.24-.06.41-.13.09-.04.23-.1.38-.2.12-.08.22-.15.29-.21.1-.08.17-.16.22-.21.03-.04.11-.12.19-.24.05-.07.09-.14.13-.19.03-.04.05-.09.07-.12-.02.02-.05.05-.08.08-.08.08-.15.14-.21.18-.06.05-.15.11-.26.18-.21.12-.4.18-.49.21-.08.02-.25.07-.47.08-.23.01-.42,0-.52-.03-.08-.01-.21-.04-.36-.09-.16-.05-.28-.12-.36-.16-.06-.03-.16-.09-.28-.18-.16-.12-.26-.24-.32-.3-.04-.04-.1-.12-.17-.22-.05-.08-.11-.17-.16-.28-.06-.13-.1-.25-.13-.33-.02-.07-.05-.19-.07-.35-.02-.15-.02-.28-.02-.36,0-.24.05-.43.08-.55.03-.1.07-.24.15-.39.05-.1.1-.18.14-.24.06-.08.15-.21.28-.35.14-.14.27-.23.33-.28.08-.05.15-.09.21-.12"/><path class="cls-1" d="M12.97.24s.02,0,.04,0c.05,0,.09-.01.12-.02.03,0,.08,0,.16,0,.07,0,.12,0,.15,0,.06,0,.11.01.14.02.05,0,.1.02.17.04.07.02.13.04.17.07.03.01.08.04.13.07.03.02.06.04.1.06.02.02.06.04.09.07.03.02.06.05.09.08.05.04.08.08.11.12.02.02.04.05.06.08.04.05.07.09.09.13.03.04.05.08.06.1,0,.02.02.03.02.04.28-.13.56-.26.84-.39-.02-.02-.04-.04-.06-.07-.02-.02-.05-.04-.06-.06-.02-.02-.05-.04-.09-.08-.05-.04-.08-.07-.11-.08-.04-.03-.08-.05-.11-.07-.03-.02-.07-.04-.11-.07-.05-.03-.09-.05-.12-.06-.03-.02-.08-.04-.15-.07-.06-.02-.11-.04-.14-.05-.03-.01-.08-.02-.13-.04-.03,0-.08-.02-.13-.03-.04,0-.08-.01-.14-.02-.05,0-.11,0-.19,0-.06,0-.1,0-.14,0-.07,0-.12,0-.16.01-.06,0-.12.02-.16.03-.05,0-.09.02-.12.03-.04,0-.08.02-.12.04-.04.01-.08.03-.1.04-.01,0-.05.02-.09.04-.02.01-.04.02-.05.02-.02,0-.03.01-.04.02"/><polygon class="cls-1" points="17.29 5.33 17.39 5.33 17.39 6.25 17.96 6.25 17.96 6.35 17.29 6.35 17.29 5.33"/><rect class="cls-1" x="18.41" y="5.33" width=".11" height="1.02"/><polygon class="cls-1" points="19.22 5.42 19.22 5.82 19.74 5.82 19.74 5.91 19.22 5.91 19.22 6.34 19.11 6.34 19.11 5.33 19.81 5.33 19.81 5.42 19.22 5.42"/><polygon class="cls-1" points="21.02 6.25 21.02 6.34 20.3 6.34 20.3 5.33 20.99 5.33 20.99 5.42 20.4 5.42 20.4 5.78 20.93 5.78 20.93 5.87 20.4 5.87 20.4 6.25 21.02 6.25"/><path class="cls-1" d="M22.08,6.22l.04-.08c.07.07.2.12.34.12.19,0,.27-.08.27-.18,0-.28-.63-.11-.63-.49,0-.15.12-.28.38-.28.11,0,.24.03.32.09l-.04.09c-.09-.06-.19-.08-.28-.08-.19,0-.27.08-.27.18,0,.28.63.11.63.48,0,.15-.12.28-.38.28-.15,0-.3-.05-.38-.13"/><path class="cls-1" d="M23.25,5.84c0-.3.23-.52.53-.52.15,0,.28.05.37.15l-.07.07c-.08-.08-.18-.12-.3-.12-.25,0-.43.18-.43.42s.18.42.43.42c.12,0,.22-.04.3-.12l.07.07c-.09.1-.22.15-.37.15-.31,0-.53-.22-.53-.52"/><rect class="cls-1" x="24.65" y="5.33" width=".11" height="1.02"/><polygon class="cls-1" points="26.07 6.25 26.07 6.34 25.35 6.34 25.35 5.33 26.05 5.33 26.05 5.42 25.46 5.42 25.46 5.78 25.99 5.78 25.99 5.87 25.46 5.87 25.46 6.25 26.07 6.25"/><polygon class="cls-1" points="27.44 5.33 27.44 6.35 27.35 6.35 26.7 5.52 26.7 6.35 26.59 6.35 26.59 5.33 26.68 5.33 27.34 6.15 27.34 5.33 27.44 5.33"/><path class="cls-1" d="M27.95,5.84c0-.3.23-.52.53-.52.15,0,.28.05.37.15l-.07.07c-.08-.08-.18-.12-.3-.12-.25,0-.43.18-.43.42s.19.42.43.42c.12,0,.22-.04.3-.12l.07.07c-.09.1-.22.15-.37.15-.31,0-.53-.22-.53-.52"/><polygon class="cls-1" points="30.07 6.25 30.07 6.34 29.35 6.34 29.35 5.33 30.05 5.33 30.05 5.42 29.46 5.42 29.46 5.78 29.98 5.78 29.98 5.87 29.46 5.87 29.46 6.25 30.07 6.25"/><path class="cls-1" d="M30.49,6.22l.04-.08c.07.07.2.12.34.12.19,0,.27-.08.27-.18,0-.28-.63-.11-.63-.49,0-.15.12-.28.38-.28.12,0,.23.03.32.09l-.04.09c-.09-.06-.19-.08-.28-.08-.19,0-.27.08-.27.18,0,.28.63.11.63.48,0,.15-.12.28-.38.28-.15,0-.3-.05-.38-.13"/></svg>