<?xml version="1.0" encoding="UTF-8"?><svg id="Layer_1" xmlns="http://www.w3.org/2000/svg" viewBox="0 0 480.54 128.14"><defs><style>.cls-1{fill:#606161;stroke-width:0px;}</style></defs><polygon class="cls-1" points="37.73 1.19 56.53 61.23 0 61.23 12.2 24.3 27.17 24.3 20.74 47.01 36.19 47.01 19.9 1.19 37.73 1.19"/><path class="cls-1" d="M57.1,1.19h20.69c3.67,0,6.85.22,9.55.66,1.76.27,3.45.84,5.06,1.74,1.62.9,2.98,2,4.09,3.32,1.12,1.32,1.99,2.88,2.62,4.67.63,1.79.95,3.67.95,5.63,0,3.79-.97,6.97-2.91,9.55-1.06,1.44-2.3,2.55-3.72,3.35-1.42.79-3.4,1.47-5.92,2.03,2.05.44,3.63.97,4.73,1.6,1.1.63,2.06,1.55,2.88,2.75,1.5,2.17,2.25,5.1,2.25,8.8v15.95h-16.38v-14.19c0-2.87-.54-4.92-1.63-6.15-.68-.82-1.67-1.41-2.99-1.78-1.32-.37-3.07-.55-5.24-.55h-14.04v-14.26h19.5c1.58,0,2.78-.12,3.59-.35.81-.24,1.43-.63,1.87-1.19.68-.82,1.01-1.79,1.01-2.91,0-1.38-.44-2.48-1.32-3.3-.85-.73-2.35-1.1-4.49-1.1h-20.16V1.19Z"/><path class="cls-1" d="M105.49,1.19h42.62c4.96,0,8.88.35,11.76,1.06,2.79.68,5.24,2.32,7.35,4.93,1.35,1.67,2.32,3.66,2.91,5.96.59,2.3.88,5.26.88,8.86v39.23h-16.38V22.66c0-1.64-.11-2.87-.33-3.69-.22-.82-.62-1.51-1.21-2.07-.56-.53-1.27-.9-2.13-1.12-.87-.22-2-.33-3.41-.33h-25.67v45.78h-16.38V1.19ZM145.86,61.23h-15.19V24.3h15.19v36.93Z"/><path class="cls-1" d="M207.85,0c3.55,0,7.02.54,10.41,1.63,3.39,1.08,6.42,2.63,9.09,4.62,3.79,2.82,6.65,6.37,8.61,10.65,1.95,4.28,2.93,9.16,2.93,14.61,0,3.82-.59,7.47-1.78,10.96-1.19,3.49-2.9,6.6-5.13,9.33-2.85,3.52-6.26,6.18-10.24,7.97-3.98,1.79-8.43,2.69-13.36,2.69s-9.43-.87-13.49-2.62c-4.07-1.75-7.57-4.32-10.5-7.73-4.9-5.69-7.35-12.58-7.35-20.65,0-4.72.87-9.15,2.62-13.27,1.75-4.12,4.22-7.61,7.42-10.45,5.78-5.16,12.71-7.75,20.78-7.75M207.89,13.82c-4.34,0-7.74,1.53-10.19,4.6-2.45,3.07-3.68,7.3-3.68,12.7,0,2.91.4,5.55,1.19,7.95.79,2.39,1.92,4.36,3.39,5.92,2.35,2.44,5.5,3.65,9.47,3.65,4.32,0,7.7-1.54,10.15-4.62,2.45-3.08,3.68-7.35,3.68-12.81s-1.26-9.57-3.76-12.7c-2.51-3.13-5.92-4.69-10.24-4.69"/><path class="cls-1" d="M292.25,1.19v60.05h-28.18c-3.61,0-6.68-.41-9.2-1.23-1.67-.55-3.24-1.5-4.69-2.83-1.45-1.33-2.6-2.9-3.46-4.72-1.23-2.52-1.85-6.24-1.85-11.16V1.19h16.38v38.21c0,1.94.12,3.35.35,4.25.23.9.68,1.62,1.32,2.18.5.44,1.16.75,1.98.92.82.18,1.94.26,3.35.26h7.62V1.19h16.38Z"/><path class="cls-1" d="M297.66,1.19h20.69c3.67,0,6.85.22,9.55.66,1.76.27,3.45.84,5.06,1.74,1.62.9,2.98,2,4.09,3.32,1.12,1.32,1.99,2.88,2.62,4.67.63,1.79.95,3.67.95,5.63,0,3.79-.97,6.97-2.91,9.55-1.06,1.44-2.3,2.55-3.72,3.35-1.42.79-3.4,1.47-5.92,2.03,2.05.44,3.63.97,4.73,1.6,1.1.63,2.06,1.55,2.88,2.75,1.5,2.17,2.25,5.1,2.25,8.8v15.95h-16.38v-14.19c0-2.87-.54-4.92-1.63-6.15-.67-.82-1.67-1.41-2.99-1.78-1.32-.37-3.07-.55-5.24-.55h-14.04v-14.26h19.5c1.58,0,2.78-.12,3.59-.35.81-.24,1.43-.63,1.87-1.19.67-.82,1.01-1.79,1.01-2.91,0-1.38-.44-2.48-1.32-3.3-.85-.73-2.35-1.1-4.49-1.1h-20.16V1.19Z"/><path class="cls-1" d="M151.44,66.87l18.09,44.46-9.82,16.59-26.15-61.06h17.88ZM207.97,66.87l-24.79,61.06-18.89-44.37,10.3-17.52,8.58,25.36,7.75-24.52h17.04Z"/><path class="cls-1" d="M250.85,81.13h-40.46v-14.26h40.46v14.26ZM250.85,89.98v14.26h-24.08v8.45h24.08v14.22h-40.46v-36.93h40.46Z"/><polygon class="cls-1" points="274.45 66.87 274.45 112.69 295.05 112.69 295.05 126.91 258.07 126.91 258.07 66.87 274.45 66.87"/><path class="cls-1" d="M298.05,66.87h19.72c4.29,0,8.13.52,11.54,1.56,3.4,1.04,6.43,2.62,9.07,4.73,3.52,2.82,6.27,6.33,8.26,10.54,1.98,4.21,2.97,8.66,2.97,13.35,0,6.66-1.98,12.64-5.94,17.95-1.76,2.35-3.79,4.39-6.1,6.14-2.31,1.74-4.67,3.03-7.11,3.85-3.76,1.29-8.22,1.94-13.38,1.94h-19.02v-36.93h16.38v22.82c3.05,0,5.67-.37,7.86-1.1,2.19-.73,4.07-1.88,5.66-3.43,1.44-1.44,2.58-3.17,3.41-5.21.84-2.04,1.25-4.1,1.25-6.18s-.43-4.11-1.28-6.16c-.85-2.05-2-3.8-3.43-5.23-1.58-1.58-3.4-2.7-5.44-3.36-2.04-.66-4.73-.99-8.08-.99h-16.33v-14.26Z"/><path class="cls-1" d="M372.01,81.13h-16.38v-14.26h16.38v14.26ZM372.01,126.91h-16.38v-36.93h16.38v36.93Z"/><path class="cls-1" d="M379.23,66.87h26.06c3.79,0,7.1.37,9.95,1.1,2.58.68,4.87,2.05,6.87,4.14,1.53,1.56,2.65,3.51,3.37,5.85.72,2.35,1.08,5.19,1.08,8.53v40.42h-16.38v-39.63c0-2.05-.37-3.55-1.1-4.49-.91-1.11-2.76-1.67-5.55-1.67h-7.93v45.78h-16.38v-60.05Z"/><path class="cls-1" d="M480.54,66.87v14.26h-13.43c-3.26,0-5.97.41-8.14,1.23-2.17.82-4.02,2.14-5.55,3.96-1.23,1.47-2.19,3.16-2.86,5.08-.68,1.92-1.01,3.93-1.01,6.01,0,2.67.54,5.17,1.63,7.51,1.08,2.33,2.6,4.28,4.53,5.83,2.99,2.38,6.49,3.57,10.48,3.57,2.99,0,5.71-.76,8.14-2.29,1.15-.73,2.15-1.54,3.02-2.42.87-.88,1.93-2.2,3.19-3.96v18.4c-2.73,1.44-5.4,2.48-8.01,3.13-2.61.64-5.46.97-8.54.97-4.32,0-8.36-.73-12.13-2.18-3.77-1.45-7.1-3.56-9.97-6.32-2.97-2.82-5.26-6.19-6.89-10.13-1.63-3.93-2.44-8.03-2.44-12.28,0-3.61.59-7.08,1.78-10.41,1.19-3.33,2.9-6.35,5.13-9.05,1.85-2.2,3.94-4.1,6.27-5.7,2.33-1.6,4.7-2.75,7.11-3.46,4.17-1.17,9.23-1.76,15.19-1.76h12.5ZM480.54,104.24h-18.18v-14.26h18.18v14.26Z"/></svg>