<?xml version="1.0" encoding="UTF-8"?><svg id="Layer_1" xmlns="http://www.w3.org/2000/svg" viewBox="0 0 180 65.48"><defs><style>.cls-1,.cls-2{stroke-width:0px;}.cls-2{fill:#e21835;fill-rule:evenodd;}</style></defs><path class="cls-2" d="M26.71,0h7.1c.64.16,1.05.79,1.04,1.44,0,11.62,0,23.25,0,34.87.09,2.63,1.05,1.79,2.6,2.14.59.3.69,1.06.73,1.66.02,1.87,0,3.75.01,5.62,0,1.06-.38,1.96-1.59,1.95-2.12,0-4.28-.49-6.07-1.65-.89-.55-1.65-1.29-2.34-2.08-3.36,2.66-7.72,4-11.99,3.67-3.87-.25-7.62-1.87-10.48-4.48-7.28-6.54-7.67-18.08-.79-25.05,2.73-2.84,6.46-4.71,10.37-5.17,3.53-.44,7.18.23,10.32,1.9,0-4.29,0-8.57,0-12.86-.09-.8.21-1.79,1.1-1.96h0ZM16.01,22.17c-3.18.52-5.88,3.1-6.56,6.24-.97,4.13,1.5,8.37,5.55,9.62,4.13,1.31,8.62-.93,10.11-5,2.17-5.83-2.94-12-9.09-10.86h0Z"/><path class="cls-2" d="M81.02,0h7.1c.76.17,1.1.98,1.07,1.7,0,14.85,0,29.69,0,44.54.02.7-.52,1.42-1.26,1.42-2.23.02-4.46.01-6.69,0-.77.04-1.36-.7-1.33-1.43,0-14.85,0-29.69,0-44.54-.04-.73.32-1.55,1.1-1.7h0Z"/><path class="cls-2" d="M96.59,0h7.09c.51.12.91.55,1.01,1.06.14.73.05,1.47.07,2.21,0,14.28,0,28.56,0,42.84.06.75-.49,1.57-1.29,1.56-2.05.03-4.1,0-6.15.01-.36,0-.73.02-1.06-.13-.49-.23-.78-.77-.77-1.31,0-14.85,0-29.7,0-44.55-.04-.72.32-1.55,1.1-1.69h0Z"/><path class="cls-2" d="M136.89,11.75c1.96,0,3.91,0,5.87,0,1.13,0,1.67.54,1.68,1.7,0,7.66,0,15.33,0,22.99.02.62.11,1.35.66,1.74.58.39,1.31.11,1.94.29.61.34.68,1.14.73,1.76,0,1.91,0,3.83,0,5.75.03.79-.52,1.57-1.32,1.67-3.24.16-6.63-1.12-8.67-3.7-7.01,5.51-17.18,4.84-23.34-1.64-6.95-7.12-6.36-18.85,1.2-25.29,5.33-4.63,14.44-6.36,19.57-.51,0-1.06,0-2.13,0-3.19,0-1.13.67-1.55,1.69-1.57h0ZM125.61,22.17c-2.87.48-5.39,2.62-6.32,5.38-2.37,6.73,4.68,13.22,11.22,10.07,3.32-1.56,5.25-5.27,4.55-8.89-.8-4.35-5.08-7.36-9.44-6.56h0Z"/><path class="cls-2" d="M152.86,13.57c0-.89.71-1.82,1.65-1.81,1.97-.02,3.94,0,5.9,0,1.11-.1,1.83,1.09,1.7,2.09,0,1.41-.01,2.83,0,4.24.75-2.34,2.62-4.42,5.06-5.01,2.67-.51,5.45-.34,8.05.42,1.15.3,1.18,1.07.8,2.03-.7,1.78-1.38,3.56-2.08,5.34-.63,1.63-1.94,1.25-3.24,1.2-3.12-.19-6.23,1.6-7.66,4.37-.66,1.22-.96,2.62-.96,4,0,5.18,0,10.36,0,15.54.04,1.2-.56,1.72-1.7,1.7-2.1-.02-4.19.01-6.28-.01-.74-.01-1.26-.73-1.26-1.43,0-10.89,0-21.78,0-32.66h0Z"/><path class="cls-2" d="M66.46,15.18c3.66,2.14,6.5,5.66,7.79,9.7,2.93,8.99-2,18.8-10.93,21.84-6.34,2.19-13.43.52-18.11-4.28-5.86-5.91-6.67-15.33-1.9-22.14,5.14-7.49,15.36-9.73,23.15-5.12h0ZM56.23,22.17c-3.01.5-5.6,2.84-6.43,5.76-1.25,4.21,1.15,8.74,5.34,10.07,5.93,1.96,11.93-3.43,10.49-9.6-.96-4.2-5.13-7.01-9.39-6.23h0Z"/><path class="cls-2" d="M174.79,36.84c3.59.33,5.59,3.49,5.15,6.91-.3,1.75-1.47,3.26-3.01,4.1-2.2,1.19-5.18.72-6.93-1.08-3.88-3.99-.55-10.56,4.78-9.93h0Z"/><path class="cls-1" d="M96.18,58.39v6.28c0,.44-.36.8-.8.8s-.8-.36-.8-.8v-3.21h-3.9v3.21c0,.44-.36.8-.8.8s-.8-.36-.8-.8v-6.28c0-2.13,1.37-3.71,3.55-3.74,2.16.03,3.55,1.62,3.55,3.74h0ZM90.68,58.39v1.48h3.9v-1.48c0-1.21-.68-2.14-1.95-2.14s-1.95.91-1.95,2.14h0Z"/><path class="cls-1" d="M155.38,58.39v6.28c0,.44-.36.8-.8.8s-.8-.36-.8-.8v-3.21h-3.9v3.21c0,.44-.36.8-.8.8s-.8-.36-.8-.8v-6.28c0-2.13,1.37-3.71,3.55-3.74,2.16.03,3.55,1.62,3.55,3.74h0ZM149.88,58.39v1.48h3.9v-1.48c0-1.21-.68-2.14-1.95-2.14s-1.95.91-1.95,2.14h0Z"/><path class="cls-1" d="M118.88,60.72c.72.6,1.23,1.53,1.23,2.48v1.47c0,.44-.36.8-.8.8s-.8-.36-.8-.8v-1.47c0-.96-1.03-1.74-1.95-1.74h-1.91v3.21c0,.44-.36.8-.8.8s-.8-.36-.8-.8v-7.14c0-1.79,1.06-2.88,2.86-2.88h.84c1.86,0,3.25,1.37,3.32,3.22.04,1.09-.33,2.16-1.2,2.85h0ZM114.65,57.53v2.33h1.96c1.21,0,1.91-.73,1.86-1.94-.04-.99-.73-1.68-1.72-1.68h-.84c-.91,0-1.26.38-1.26,1.28h0Z"/><path class="cls-1" d="M104.73,60.72c.72.6,1.23,1.53,1.23,2.48v1.47c0,.44-.36.8-.8.8s-.8-.36-.8-.8v-1.47c0-.96-1.03-1.74-1.95-1.74h-1.91v3.21c0,.44-.36.8-.8.8s-.8-.36-.8-.8v-7.14c0-1.79,1.06-2.88,2.86-2.88h.84c1.86,0,3.25,1.37,3.32,3.22.04,1.09-.33,2.16-1.2,2.85h0ZM100.51,57.53v2.33h1.96c1.21,0,1.91-.73,1.86-1.94-.04-.99-.73-1.68-1.72-1.68h-.84c-.91,0-1.26.38-1.26,1.28h0Z"/><path class="cls-1" d="M137.62,58.39v6.28c0,.44-.36.8-.8.8s-.8-.36-.8-.8v-6.28c0-1.21-.68-2.14-1.95-2.14s-1.95.91-1.95,2.14v6.28c0,.44-.36.8-.8.8s-.8-.36-.8-.8v-6.28c0-2.14,1.37-3.71,3.55-3.74,2.15,0,3.55,1.66,3.55,3.74h0Z"/><path class="cls-1" d="M124.08,57.33v1.91h3.4c.44,0,.8.36.8.8s-.36.8-.8.8h-3.4v1.89c0,.67.21,1.07.93,1.07h2.42c.44,0,.8.36.8.8s-.36.8-.8.8h-2.42c-1.61,0-2.53-1.11-2.53-2.67v-5.4c0-1.56.92-2.67,2.53-2.67h2.42c.44,0,.8.36.8.8s-.36.8-.8.8h-2.42c-.72,0-.93.4-.93,1.07h0Z"/><path class="cls-1" d="M140.38,56.25c-.44,0-.8-.36-.8-.8s.36-.8.8-.8h5.26c.44,0,.8.36.8.8s-.36.8-.8.8h-1.83v8.45c0,.43-.36.77-.8.77s-.8-.34-.8-.77v-8.45h-1.83Z"/><path class="cls-1" d="M159.75,62.53c0,.7.13,1.26.93,1.28h2.16c.44,0,.8.36.8.8s-.36.8-.8.8h-1.95c-1.81,0-2.74-1.05-2.74-2.87v-7.08c0-.44.36-.8.8-.8s.8.36.8.8v7.08h0Z"/><path class="cls-1" d="M81.01,56.45c1.21-1.35,2.97-1.8,3.62-1.8h1.69c.44,0,.8.36.8.8s-.36.8-.8.8h-1.69c-.42,0-1.58.31-2.44,1.27-1.2,1.35-1.2,3.67,0,5.02.85.95,2.01,1.27,2.44,1.27h1.69c.44,0,.8.36.8.8s-.36.8-.8.8h-1.69c-.65,0-2.41-.45-3.62-1.8-1.75-1.95-1.75-5.2,0-7.16h0Z"/></svg>