<?xml version="1.0" encoding="UTF-8"?><svg id="Layer_1" xmlns="http://www.w3.org/2000/svg" viewBox="0 0 405.07 137.47"><defs><style>.cls-1{fill:#606161;stroke-width:0px;}</style></defs><path class="cls-1" d="M397.99,28.13c-3.86,0-6.99,3.09-7.07,6.93-5.79-4.23-12.92-6.73-20.62-6.73-19.35,0-35.09,15.73-35.09,35.05s15.74,35.06,35.09,35.06c7.71,0,14.85-2.5,20.65-6.74.33,3.6,3.36,6.41,7.04,6.41,3.91,0,7.08-3.17,7.08-7.07V28.13h-7.08ZM370.3,84.15c-11.48,0-20.79-9.3-20.79-20.77s9.31-20.77,20.79-20.77,20.79,9.3,20.79,20.77-9.31,20.77-20.79,20.77Z"/><path class="cls-1" d="M163.79,7.06c-3.91,0-7.08,3.17-7.08,7.07s3.17,7.07,7.08,7.07,7.08-3.17,7.08-7.07-3.17-7.07-7.08-7.07ZM148.23,55.82c.54,2.44.83,4.96.83,7.56,0,2.25-.22,4.45-.63,6.58h-54.17c2.76,8.24,10.54,14.19,19.71,14.19,6.02,0,11.43-2.56,15.23-6.64,2.13-2.3,5.55-2.86,8.27-1.3,4.15,2.39,5.04,8.07,1.72,11.51-6.38,6.6-15.32,10.71-25.21,10.71-17.1,0-31.37-12.28-34.46-28.47-.41-2.13-.63-4.33-.63-6.58,0-2.6.29-5.12.83-7.56,3.47-15.71,17.51-27.49,34.26-27.49s30.79,11.79,34.26,27.49ZM133.33,55.82c-3.03-7.73-10.55-13.21-19.36-13.21s-16.33,5.48-19.36,13.21h38.72ZM156.72,35.2v55.84c0,3.91,3.17,7.07,7.08,7.07h0c3.91,0,7.08-3.17,7.08-7.07V28.13h-7.08c-3.91,0-7.08,3.17-7.08,7.07ZM.04,61.66c-.97,20.11,15.13,36.78,35.05,36.78,7.75,0,14.91-2.53,20.72-6.79.04,4.12.07,8.31.07,10.76,0,11.47-9.31,20.77-20.79,20.77s-20.79-9.3-20.79-20.77v-.05c0-10.33-14.3-8.6-14.3-.1,0,.67.01,1.35.05,2.04.95,17.9,15.56,32.36,33.48,33.14,20.05.87,36.64-15.18,36.64-35.02v-46.51c0-3.64-2.95-6.58-6.59-6.58h-.59c-3.96,0-7.18,3.21-7.18,7.17v8.38c-.72,10.28-9.07,18.57-19.35,19.24-12.78.82-23.28-9.89-22.07-22.73.93-9.95,9.05-17.91,19.02-18.69h29.27c4.21,0,7.63-3.41,7.63-7.62v-6.67h-37.27C15.24,29.4.9,43.87.04,61.66ZM326.54,55.82c.54,2.44.83,4.96.83,7.56,0,2.25-.22,4.45-.63,6.58h-54.17c2.76,8.24,10.54,14.19,19.71,14.19,6.02,0,11.43-2.56,15.23-6.64,2.13-2.3,5.55-2.86,8.27-1.3,4.15,2.39,5.04,8.07,1.72,11.51-6.38,6.6-15.32,10.71-25.21,10.71-17.1,0-31.37-12.28-34.46-28.47-.41-2.13-.63-4.33-.63-6.58,0-2.6.29-5.12.83-7.56,3.47-15.71,17.51-27.49,34.26-27.49s30.79,11.79,34.26,27.49ZM311.65,55.82c-3.03-7.73-10.55-13.21-19.36-13.21s-16.33,5.48-19.36,13.21h38.72ZM241.62,0h7.08v91.04c0,3.91-3.17,7.07-7.08,7.07h0c-3.69,0-6.71-2.82-7.04-6.42-5.8,4.23-12.93,6.74-20.65,6.74-19.35,0-35.09-15.73-35.09-35.06s15.74-35.05,35.09-35.05c7.7,0,14.82,2.49,20.61,6.71V7.07c0-3.91,3.17-7.07,7.08-7.07ZM234.72,63.38c0-11.47-9.31-20.77-20.79-20.77s-20.79,9.3-20.79,20.77,9.31,20.77,20.79,20.77,20.79-9.3,20.79-20.77Z"/></svg>