<?xml version="1.0" encoding="UTF-8"?><svg id="Layer_1" xmlns="http://www.w3.org/2000/svg" viewBox="0 0 101 107"><defs><style>.cls-1{fill:#7c7c7c;stroke-width:0px;}</style></defs><path class="cls-1" d="M36.29,95.89v4.32c-11.04-3.21-20.7-10.06-27.41-19.44l4.4-1.04c5.86,7.61,13.89,13.25,23.02,16.16Z"/><path class="cls-1" d="M101,59.02c-.21,1.37-.47,2.73-.79,4.08l-4.57,1.08L.77,86.59v-3.9l99.44-23.48h0s.79-.18.79-.18Z"/><path class="cls-1" d="M50.51,94.39v6.31l-6.67,1.58v-6.31l6.67-1.58Z"/><path class="cls-1" d="M57.19,99.12v6.31l-6.67,1.58v-6.31l6.67-1.58Z"/><path class="cls-1" d="M63.86,91.23v6.31l-6.67,1.58v-6.31l6.67-1.58Z"/><path class="cls-1" d="M70.54,95.96v6.31l-6.67,1.58v-6.31l6.67-1.58Z"/><path class="cls-1" d="M77.21,88.08v6.3l-6.67,1.58v-6.31l6.67-1.57Z"/><path class="cls-1" d="M100.21,63.1c-2.19,9.18-6.89,17.56-13.58,24.19-.61.61-1.23,1.2-1.86,1.77v-5.8c5.08-5.4,8.81-11.94,10.88-19.08l4.57-1.08Z"/><path class="cls-1" d="M3.86,30.5l3.22,3.02c-.69,1.67-1.28,3.37-1.76,5.11l-4.55,1.08c.73-3.16,1.77-6.24,3.09-9.2ZM3.86,30.5C7.93,21.5,14.49,13.86,22.77,8.51,31.04,3.16,40.68.32,50.52.34c8.18,0,16.24,1.95,23.51,5.72,7.27,3.77,13.54,9.23,18.28,15.93l-4.39,1.04c-4.03-5.29-9.12-9.66-14.94-12.84-5.82-3.18-12.24-5.08-18.85-5.59-6.6-.51-13.24.38-19.48,2.62-6.24,2.24-11.93,5.78-16.72,10.38-.25.23-.49.48-.73.72-.61.62-1.21,1.25-1.79,1.9-.04.04-.07.08-.11.12-.35.39-.68.78-1.01,1.18-.25.3-.49.61-.73.91-.65.82-1.26,1.66-1.85,2.52-.22.32-.43.64-.64.96-.15.23-.3.46-.44.7-.22.34-.43.69-.63,1.04h0c-1.11,1.9-2.08,3.86-2.91,5.88l-3.23-3.02Z"/><path class="cls-1" d="M38.47,18.99s-.05.1-.13.27c-.04.08-.09.19-.16.31-.06.12-.13.25-.21.4-.08.14-.17.3-.26.46-.09.16-.19.34-.3.51-.21.35-.45.72-.68,1.09-.46.74-.92,1.48-1.28,2.04l-.58.92h-.02s.22-.39.54-.96c.32-.57.76-1.33,1.19-2.09.22-.38.43-.76.64-1.11.11-.18.21-.34.31-.5.1-.16.2-.31.29-.44.09-.14.17-.26.25-.37.07-.11.14-.2.2-.28.11-.16.18-.24.18-.24h.02Z"/><path class="cls-1" d="M19.2,28.62c1.62-.9,3.36-1.58,5.15-2.02,3.6-1.02,5.81-1.42,5.81-1.42-.31.24-.63.46-.98.64-.46.22-8.48,2.21-9.98,2.8Z"/><path class="cls-1" d="M20.54,30.39c6.09-1.48,27.71-6.61,30.37-7.41,2.66-.8,11.34-2.8,14.52-3.56,3.19-.76,14.7-2.71,14.7-2.71,0,0-1.55-1.95-2.72-1.95-1.17,0-8.37.87-10.25,1.25-1.88.39-9.89,2.41-14.41,4.32,4.62-2.51,9.63-4.23,14.81-5.07,0,0-6.68-1.08-8.23-1.28-3.52-.46-3.86-.81-9.48.19-5.34.95-10.84,2.13-13.48,3.95,0,0,.96-.25.76.02-.07.1-3.28,5.05-4.67,6.3-.39.35-1.3.55-1.31.67-.01.13.75.13,1.43.1-1.82.43-3.25.77-3.92.94-2.77.67-19.52,4.64-20.51,7.56l.5.54c3.85-1.62,7.82-2.91,11.89-3.85ZM46.79,23.19c.44-.22.9-.37,1.38-.46.9-.2,1.49-.36,1.57-.26.09.11,0,.38-.33.46-.34.08-.28-.19-.28-.19,0,0-.7.17-1.26.31-.56.14-1.19.37-1.07.14h0ZM33.61,24.96c.61-1.01,4.24-6.92,4.6-7.08.4-.17,3.86-1.3,11.24-2.3,2.59-.35,6.24-.28,6.51.24.27.52-.59,1.43-1.57,2.23-.95.78-2.43,2.45-4.71,3.09l-.91-5.04.54,5.13c-1.72.42-8.13,1.93-13.44,3.18,0,0,0-.01,0-.02.22-.27.41-.57.54-.89,0-.1-.15.04-.15.04-.38.83-2.03,1.25-2.03,1.25h0s-.63.16-.63.16Z"/><path class="cls-1" d="M36.33,23.79l.45-.11s.08,0,.11.03c.03.02.05.06.06.09.02.08-.19.13-.27.15l-.37.09c-.09.02-.11-.21.02-.25Z"/><path class="cls-1" d="M36.79,23.14c.14-.08.29-.12.45-.11.24.06.44.43.44.43l-.4.1c-.04-.11-.1-.2-.19-.27-.09-.07-.19-.12-.3-.14Z"/><path class="cls-1" d="M37.76,23.79s.07.49-.2.56l-.28.07c.08-.17.11-.35.08-.53l.4-.1Z"/><path class="cls-1" d="M40.1,91.66l.14-1.42.97-.24.15,1.34,1.27-.32-1.27-10.42-1.26.32-1.28,11.06,1.27-.32ZM40.72,83.97l.34,4.74-.65.16.31-4.9ZM44.88,90.26c.16.09.33.15.51.18.18.02.37,0,.54-.04.49-.13.92-.42,1.22-.83.32-.4.5-.89.5-1.41v-9.12s-1.29.33-1.29.33v9.27c-.01.13-.06.25-.14.36-.07.09-.17.16-.28.19-.09.03-.18.02-.26-.02-.04-.02-.07-.05-.1-.08-.03-.03-.04-.07-.05-.12-.01-.04-.02-.08-.01-.12v-9.27s-1.28.32-1.28.32v9.12c-.01.14,0,.27.04.4.04.17.11.34.22.49.1.15.24.27.39.36ZM51.81,88.75v-9.39s.85-.21.85-.21v-1.35s-2.95.73-2.95.73v1.35s.86-.21.86-.21v9.4s1.25-.31,1.25-.31ZM55.04,87.73c.16.09.33.15.51.18.18.02.37,0,.54-.04.49-.13.92-.42,1.22-.83.32-.4.5-.89.5-1.41v-7.49c0-.14-.02-.27-.05-.4-.04-.17-.11-.34-.22-.48-.1-.14-.24-.26-.39-.35-.16-.09-.34-.15-.52-.17-.18-.02-.37,0-.54.04-.49.13-.91.42-1.21.83-.32.39-.49.88-.5,1.39v7.49c0,.14.02.27.05.4.04.17.11.34.22.49.1.15.24.27.39.36ZM55.68,86.31v-7.8c0-.13.05-.26.13-.36.07-.09.18-.16.29-.19.05-.02.1-.02.16-.01.05,0,.1.03.15.06.04.03.08.08.1.13.02.05.03.11.02.16v7.8c-.01.13-.06.25-.14.36-.07.09-.17.16-.28.19-.09.03-.18.02-.26-.02-.04-.02-.07-.05-.1-.08-.03-.03-.04-.07-.05-.12-.01-.04-.02-.08-.01-.12h0ZM60.5,86.37c.16.09.33.15.51.18.18.02.37,0,.54-.04.49-.13.92-.42,1.22-.83.32-.4.5-.89.5-1.41v-3.13s-1.3.33-1.3.33v3.28c0,.13-.05.25-.13.36-.07.09-.17.16-.28.19-.09.03-.18.02-.26-.02-.04-.02-.07-.05-.1-.08-.03-.03-.04-.07-.05-.12-.01-.04-.02-.08-.01-.12v-7.8c0-.13.05-.26.13-.36.07-.09.18-.16.29-.19.05-.02.1-.02.16-.01.05,0,.1.03.15.06.04.03.08.08.1.13.02.05.03.11.02.16v3.84s1.28-.32,1.28-.32l.02-3.69c0-.14-.02-.27-.05-.4-.04-.17-.11-.34-.22-.48-.11-.14-.24-.26-.39-.35-.16-.09-.34-.15-.52-.17s-.37,0-.54.04c-.49.13-.91.42-1.21.83-.32.39-.49.88-.5,1.39v7.49c0,.14.02.27.05.4.04.17.11.34.22.48.1.15.24.27.39.36ZM66.37,85.13l.14-1.42.97-.24.15,1.34,1.27-.32-1.27-10.42-1.26.32-1.28,11.06,1.27-.32ZM66.98,77.44l.34,4.74-.65.16.31-4.9ZM70.78,84.03l1.27-.32v-2.97c.14-.05.28-.07.43-.06.09.02.15.1.18.23.02.07.03.15.04.22l.15,2.39,1.24-.31-.14-2.77c0-.24-.02-.47-.07-.7-.04-.2-.15-.39-.31-.52.14-.25.24-.51.31-.78.07-.24.12-.49.13-.75v-3.49c.01-.3-.02-.6-.08-.9-.02-.11-.05-.21-.11-.3-.06-.09-.13-.17-.22-.23-.21-.09-.44-.1-.65-.03l-2.17.54v10.74ZM72.06,78.92v-4.57c.16-.05.33-.07.5-.07.05,0,.1.03.14.07.04.04.06.09.07.14.02.08.02.16.01.24v3.47c.01.09,0,.18-.02.26-.03.08-.07.16-.13.23-.17.12-.36.2-.56.24ZM78.66,82.07v-1.35s-1.26.32-1.26.32v-3.02s1.26-.32,1.26-.32v-1.35s-1.26.32-1.26.32v-3.67s1.27-.32,1.27-.32v-1.35s-2.53.63-2.53.63v10.74s2.53-.63,2.53-.63Z"/><path class="cls-1" d="M3.07,49.35l6.58-1.67c1.14-.27,1.93-.12,2.37.45.44.57.65,1.61.65,3.12v10.61c.02.85-.04,1.7-.18,2.53-.11.59-.4,1.14-.84,1.56-.57.49-1.26.82-2,.95l-2.98.81v7.59l-3.6.85v-26.82ZM8.71,63.44c.16-.16.29-.35.37-.57s.11-.44.08-.67v-9.58c0-.61-.14-.96-.43-1.05-.7.03-1.4.15-2.06.36v12.34c.72-.17,1.41-.45,2.04-.84Z"/><path class="cls-1" d="M18.76,72.44v-26.82l3.6-.85v26.82l-3.6.85Z"/><path class="cls-1" d="M31.31,69.46v-23.44l-2.41.57v-3.37l8.34-1.98v3.37l-2.37.56v23.45l-3.56.84Z"/><path class="cls-1" d="M43.04,63.07v-6.13l3.68-.87v6.06c-.02.14,0,.29.07.42.06.13.16.24.28.32.26.14.56.17.84.09.32-.08.6-.26.82-.5.23-.24.37-.56.37-.89l.08-6.88c-.03-.45-.16-.72-.39-.79-.38-.07-.76-.04-1.12.08-.55.16-1.12.2-1.68.11-.56-.09-1.1-.3-1.57-.62-.44-.3-.81-.71-1.06-1.19-.25-.48-.39-1.01-.39-1.55l.08-6.72c.02-1.31.53-2.57,1.41-3.53.88-1.06,2.08-1.81,3.41-2.13.58-.17,1.19-.22,1.78-.13.6.09,1.17.3,1.67.64.46.32.83.75,1.08,1.25.25.5.36,1.06.33,1.62v5.67l-3.64.86v-6.05c.01-.15-.01-.3-.08-.43-.07-.13-.17-.25-.29-.33-.13-.07-.27-.12-.42-.14-.15-.02-.3,0-.44.04-.31.08-.59.25-.8.5-.23.25-.35.58-.35.93l-.12,6.66c0,.13.04.27.1.39.06.12.14.23.25.32.11.08.23.14.36.16.13.02.27,0,.39-.05,3.41-.89,5.11.28,5.11,3.5l-.08,6.99v.04c-.16,1.25-.72,2.41-1.59,3.31-.87.97-2.01,1.64-3.27,1.94-.54.15-1.1.2-1.66.12-.56-.07-1.09-.26-1.57-.54-.44-.26-.82-.62-1.1-1.06-.28-.43-.45-.93-.5-1.44Z"/><path class="cls-1" d="M60.94,62.42v-23.45l-2.41.57v-3.37l8.34-1.98v3.37l-2.37.56v23.45l-3.56.84Z"/><path class="cls-1" d="M73.24,57.68c-.44-.61-.67-1.34-.65-2.09v-18.69c.03-1.3.53-2.54,1.41-3.5.88-1.06,2.08-1.81,3.41-2.13,1.34-.32,3.19-.56,4.14.09.46.31.83.73,1.09,1.22.25.49.37,1.05.35,1.6v18.7c-.03,1.32-.54,2.58-1.43,3.54-1.13,1.21-2.56,2.09-4.14,2.55-.79.2-1.61.19-2.39-.05-.71-.2-1.34-.64-1.78-1.24ZM76.57,55.82c.26.14.56.17.84.09.56-.19,1.08-.48,1.55-.85.11-.11.2-.25.26-.4.06-.15.09-.31.09-.47v-19.52c.02-.14,0-.29-.07-.42-.06-.13-.16-.24-.28-.32-.23-.13-1.22.25-1.55.33-.32.08-.6.26-.82.5-.23.24-.37.56-.37.89v19.46c-.01.14.01.28.08.4.06.12.16.23.27.3Z"/><path class="cls-1" d="M88.81,28.99l6.58-1.67c1.14-.27,1.93-.12,2.37.45.44.57.65,1.61.65,3.12v10.61c.02.85-.04,1.7-.18,2.53-.11.59-.4,1.14-.84,1.56-.57.49-1.26.82-2,.95l-2.98.81v7.59l-3.6.85v-26.82ZM94.45,43.08c.16-.16.29-.35.37-.57.08-.21.11-.44.08-.67v-9.58c0-.61-.14-.96-.43-1.05-.7.03-1.4.15-2.06.36v12.34c.72-.17,1.41-.45,2.04-.84h0Z"/><path class="cls-1" d="M5.32,38.63l-4.55,1.08h0c-.31,1.35-.57,2.71-.77,4.08l.77-.18,3.59-.85,95.85-22.64v-3.9L5.32,38.63Z"/></svg>