<?xml version="1.0" encoding="UTF-8"?><svg id="Layer_1" xmlns="http://www.w3.org/2000/svg" viewBox="0 0 578.27 87.42"><defs><style>.cls-1,.cls-2,.cls-3,.cls-4,.cls-5{stroke-width:0px;}.cls-2{fill:#6153a3;}.cls-3{fill:#965ba5;}.cls-4{fill:#6d499d;}.cls-5{fill:#77489c;}</style></defs><path class="cls-1" d="M82.02,23.68c0-2.4,1.95-4.35,4.35-4.35h8.58v4.6c0,1.04-.81,1.89-1.94,1.89h-2.27c-2.85,0-5.32,2-5.31,5.09,0,2.88,2.8,5.37,5.66,5.01,2.38-.3,3.78-2.21,4.39-5.03.47-2.27,1.28-4.26,2.37-5.92,2.65-4.17,6.96-6.49,12.6-6.49.95,0,1.89.09,2.56.24v13.88c-1.28-.33-2.61-.47-4.03-.47-6.82,0-12.6,4.5-12.6,14.07v17.41c0,3.15-2.56,5.71-5.71,5.71h-2.94c-3.15,0-5.71-2.56-5.71-5.71V23.68h0Z"/><path class="cls-1" d="M117.92,42.97c0-16.82,10.71-26.39,25.06-26.39s23.78,9.05,23.78,25.68c0,1.47,0,2.89-.05,4.22h-29.37c-2.94,0-4.93-1.89-4.93-4.64s1.99-4.69,4.93-4.69h14.73c-.47-7.3-3.7-10.47-9.1-10.47-5.02,0-8.67,3.22-9.76,8.67-.24,1.18-.85,1.66-2.18,1.66h-.88c-2.7,0-5.05,2.15-4.99,4.85.06,2.73,2.17,4.57,4.97,4.57h1.04c1.14,0,1.75.52,1.85,1.75.52,7.06,4.41,10.9,10.23,10.9,3.63,0,6.34-1.52,7.78-4.32,1.05-2.03,3.1-3.35,5.39-3.35h5.56c2.49,0,4.24,2.5,3.37,4.84-3.03,8.23-11.02,13.07-22.39,13.07-14.92,0-25.06-8.57-25.06-26.34h0Z"/><path class="cls-1" d="M181.17,48.09c2.8,0,5.16-2.27,5.16-5.12s-2.37-5.16-5.16-5.16-5.12,2.32-5.12,5.16,2.27,5.12,5.12,5.12h0ZM173.64,43.16c0-16.72,9.9-26.58,24.3-26.58,13.03,0,22.36,7.01,23.17,20.51h-14.69c-.28-6.4-3.46-9.52-8.29-9.52-5.87,0-9.71,4.83-9.71,15.3s3.65,15.44,9.66,15.44c3.44,0,6.16-1.7,7.49-5.32.98-2.67,3.7-4.3,6.55-4.3h4.63c2.36,0,4.21,2.19,3.65,4.48-2.58,10.62-11.22,16.13-22.56,16.13-14.59,0-24.21-9.38-24.21-26.15h0Z"/><path class="cls-1" d="M307.9,58.37c6.49,0,9.95-6.21,9.95-15.49s-3.46-15.4-9.95-15.4-9.85,6.16-9.85,15.4,3.32,15.49,9.85,15.49h0ZM332.15,4.71v58.27c0,2.73-2.22,4.95-4.95,4.95h-4.31c-2.74,0-4.95-2.22-4.95-4.95v-2.39c-2.75,5.64-7.91,8.72-14.64,8.72-12.36,0-20.04-9.95-20.04-26.29s7.82-26.44,20.37-26.44c4.26,0,7.53,1.33,9.95,3.98,1.89,2.04,3.32,4.83,4.31,8.39.76,2.89,2.27,5.12,5.26,5.12,2.8,0,4.97-2.18,4.97-5.02s-2.13-4.93-5.12-4.93h-2.94c-1.14,0-1.89-.76-1.89-2.13V4.71c0-2.6,2.11-4.71,4.71-4.71h4.56c2.6,0,4.71,2.11,4.71,4.71h0Z"/><path class="cls-1" d="M341.25,42.97c0-16.82,10.71-26.39,25.06-26.39s23.78,9.05,23.78,25.68c0,1.47,0,2.89-.05,4.22h-29.37c-2.94,0-4.93-1.89-4.93-4.64s1.99-4.69,4.93-4.69h14.73c-.47-7.3-3.7-10.47-9.1-10.47-5.02,0-8.67,3.22-9.76,8.67-.24,1.18-.85,1.66-2.18,1.66h-.88c-2.7,0-5.05,2.15-4.99,4.85.06,2.73,2.17,4.57,4.97,4.57h1.04c1.14,0,1.75.52,1.85,1.75.52,7.06,4.41,10.9,10.23,10.9,4.88,0,8.1-2.75,8.81-7.67h14.45c-1.37,11.13-10.09,17.91-23.54,17.91-14.92,0-25.06-8.57-25.06-26.34h0Z"/><path class="cls-1" d="M399.42,23.02c0-2.04,1.65-3.69,3.69-3.69h9.14v4.55c0,1.23-.76,1.94-1.94,1.94h-2.71c-2.75,0-5.19,2.1-5.29,4.85-.11,2.95,2.01,5.29,4.97,5.29,2.79,0,4.5-1.85,5.21-5.07,1.94-8.2,6.68-12.93,15.68-12.93,10.04,0,15.96,7.01,15.96,17.48v28.33c0,3.06-2.48,5.54-5.54,5.54h-3.28c-3.06,0-5.54-2.48-5.54-5.54v-27.2c0-4.83-2.42-7.63-7.06-7.63-5.68,0-8.95,4.36-8.95,12.27v22.55c0,3.06-2.48,5.54-5.54,5.54h-3.28c-3.06,0-5.54-2.48-5.54-5.54V23.02h0Z"/><path class="cls-1" d="M227.36,42.97c0-16.82,10.71-26.39,25.06-26.39s23.78,9.05,23.78,25.68c0,1.47,0,2.89-.05,4.22h-29.37c-2.94,0-4.93-1.89-4.93-4.64s1.99-4.69,4.93-4.69h14.73c-.47-7.3-3.7-10.47-9.1-10.47-5.02,0-8.67,3.22-9.76,8.67-.24,1.18-.85,1.66-2.18,1.66h-.88c-2.7,0-5.05,2.15-4.99,4.85.06,2.73,2.17,4.57,4.97,4.57h1.04c1.14,0,1.75.52,1.85,1.75.52,7.06,4.41,10.9,10.23,10.9,3.63,0,6.34-1.52,7.78-4.32,1.05-2.03,3.1-3.35,5.39-3.35h5.56c2.49,0,4.24,2.5,3.37,4.84-3.03,8.23-11.02,13.07-22.39,13.07-14.92,0-25.06-8.57-25.06-26.34h0Z"/><path class="cls-1" d="M460.44,48.09c2.8,0,5.16-2.27,5.16-5.12s-2.37-5.16-5.16-5.16-5.12,2.32-5.12,5.16,2.27,5.12,5.12,5.12h0ZM452.91,43.16c0-16.72,9.9-26.58,24.3-26.58,13.03,0,22.36,7.01,23.17,20.51h-14.69c-.28-6.4-3.46-9.52-8.29-9.52-5.87,0-9.71,4.83-9.71,15.3s3.65,15.44,9.66,15.44c3.44,0,6.16-1.7,7.49-5.32.98-2.67,3.7-4.3,6.55-4.3h4.63c2.36,0,4.21,2.19,3.65,4.48-2.58,10.62-11.22,16.13-22.56,16.13-14.59,0-24.21-9.38-24.21-26.15h0Z"/><path class="cls-1" d="M506.63,42.97c0-16.82,10.71-26.39,25.06-26.39s23.78,9.05,23.78,25.68c0,1.47,0,2.89-.05,4.22h-29.37c-2.94,0-4.93-1.89-4.93-4.64s1.99-4.69,4.93-4.69h14.73c-.47-7.3-3.7-10.47-9.1-10.47-5.02,0-8.67,3.22-9.76,8.67-.24,1.18-.85,1.66-2.18,1.66h-.88c-2.7,0-5.05,2.15-4.99,4.85.06,2.73,2.17,4.57,4.97,4.57h1.04c1.14,0,1.75.52,1.85,1.75.52,7.06,4.41,10.9,10.23,10.9,3.63,0,6.34-1.52,7.78-4.32,1.05-2.03,3.1-3.35,5.39-3.35h5.56c2.49,0,4.24,2.5,3.37,4.84-3.03,8.23-11.02,13.07-22.39,13.07-14.92,0-25.06-8.57-25.06-26.34h0Z"/><polygon class="cls-2" points="563.77 68.21 578.27 68.21 578.27 53.43 563.77 53.43 563.77 68.21 563.77 68.21"/><path class="cls-1" d="M52.87,60.57c6.49,0,9.78-6.07,9.78-15.28s-3.29-15.33-9.78-15.33-9.88,6.16-9.88,15.33,3.43,15.28,9.88,15.28h0ZM43.14,63.39v19.29c0,2.62-2.12,4.74-4.74,4.74h-9.61V20.46h13.87v4c0,1.36-.75,2.12-1.88,2.12h-2.87c-3.06,0-5.13,2.16-5.13,4.89s2.12,4.94,4.94,4.94,4.47-2.16,5.22-5.03c.61-2.26,1.46-4.23,2.54-5.92,2.77-4.19,6.96-6.35,12.56-6.35,11.85,0,19.28,9.83,19.28,26.19s-7.81,26.15-20.08,26.15c-6.3,0-11.24-2.73-14.11-8.04h0Z"/><polygon class="cls-3" points="28.78 79.15 43.17 79.15 43.17 64.48 28.78 64.48 28.78 79.15 28.78 79.15"/><polygon class="cls-2" points="0 49.81 14.39 49.81 14.39 35.14 0 35.14 0 49.81 0 49.81"/><polygon class="cls-5" points="14.39 35.14 28.78 35.14 28.78 20.47 14.39 20.47 14.39 35.14 14.39 35.14"/><polygon class="cls-4" points="14.39 64.48 28.78 64.48 28.78 49.81 14.39 49.81 14.39 64.48 14.39 64.48"/></svg>