<?xml version="1.0" encoding="UTF-8"?><svg id="Layer_1" xmlns="http://www.w3.org/2000/svg" viewBox="0 0 283.46 41.43"><defs><style>.cls-1{fill:#818181;}.cls-1,.cls-2{stroke-width:0px;}.cls-2{fill:#004d6c;}</style></defs><path class="cls-1" d="M28.21,27.85h-4.78c-1.46,0-2.81-.59-3.88-1.57-.07-.06-.14-.13-.2-.2-.68-.69-1.24-1.55-1.6-2.53-.33-.87-.51-1.83-.51-2.84s.18-1.97.51-2.84c-.08-.1-.17-.2-.26-.29-.51-.51-1.13-.81-1.8-.81h-2.65s0,0,0,0c-.11.33-.2.67-.28,1.01-.22.94-.34,1.92-.34,2.94,0,.79.07,1.56.21,2.3.1.56.24,1.11.41,1.65.37,1.15.9,2.23,1.56,3.19,1.25,1.82,2.97,3.25,4.97,4.06.31.13.62.24.93.33.94.28,1.92.43,2.94.43h6.57c-1.63,1.42-3.54,2.52-5.64,3.19-1.52.48-3.13.74-4.8.74H6.26c3.72,3.12,8.38,4.82,13.29,4.82,5.29,0,10.28-1.97,14.13-5.57.17-.16.35-.33.52-.5.84-.84,1.6-1.74,2.27-2.69h0c1.06-1.5,1.92-3.12,2.54-4.83h-10.72s-.06,0-.08,0"/><path class="cls-1" d="M39.1,11.17l-2.41,2.41-3.54,3.54v-3.54h-4.94c-.52-1.03-1.15-1.99-1.87-2.86-.03-.03-.05-.06-.08-.09-.05-.05-.09-.11-.14-.16-.02-.03-.04-.05-.07-.08-.07-.08-.14-.15-.21-.23h0c-.07-.08-.15-.16-.22-.24-.02-.02-.03-.03-.05-.05-.06-.06-.12-.12-.18-.18-.02-.02-.04-.04-.06-.06-.06-.06-.13-.12-.19-.18-.01-.01-.03-.03-.04-.04-.08-.07-.16-.15-.24-.22-.16-.15-.33-.29-.5-.43h8.76v-3.54l5.96,5.96Z"/><path class="cls-2" d="M10.89,13.58h4.78c1.46,0,2.81.59,3.88,1.57.07.06.14.13.2.2.68.69,1.24,1.55,1.6,2.52.33.87.51,1.83.51,2.84s-.18,1.97-.51,2.84c.08.1.17.2.26.29.51.51,1.13.81,1.8.81h2.65s0,0,0,0c.11-.33.2-.67.28-1.01.22-.94.34-1.92.34-2.94,0-.79-.07-1.56-.21-2.3-.1-.56-.24-1.11-.41-1.65-.37-1.15-.9-2.23-1.56-3.19-1.25-1.82-2.97-3.25-4.97-4.06-.31-.13-.62-.24-.93-.33-.94-.28-1.92-.43-2.94-.43h-6.57c1.63-1.42,3.54-2.52,5.64-3.19,1.52-.48,3.13-.74,4.8-.74h13.29C29.12,1.7,24.47,0,19.55,0c-5.29,0-10.28,1.97-14.13,5.57-.17.16-.35.33-.52.5-.84.84-1.6,1.74-2.27,2.69h0c-1.06,1.5-1.92,3.12-2.54,4.83h10.72s.06,0,.08,0"/><path class="cls-2" d="M14.72,32.68H5.96v3.54L0,30.26l.77-.77,1.64-1.64,3.54-3.54v3.54h4.94c.52,1.03,1.15,1.99,1.87,2.86.03.03.05.06.08.09.05.05.09.11.14.16.02.03.04.05.07.08.07.08.14.15.21.23h0c.07.08.14.16.22.24.02.02.03.03.05.05.06.06.12.12.18.18.02.02.04.04.06.06.06.06.13.12.19.18.01.01.03.03.04.04.08.07.16.15.24.22.16.15.33.29.5.43"/><path class="cls-2" d="M249.57,6.29h-5.58l-11.15,27.89h5.58l2.23-5.58h12.27l2.23,5.58h5.58l-11.15-27.89ZM242.87,23.02l3.9-9.76,3.9,9.76h-7.81Z"/><polygon class="cls-1" points="130.04 6.29 130.04 34.17 135.61 34.17 135.61 23.02 152.34 23.02 152.34 17.44 135.61 17.44 135.61 11.87 157.92 11.87 157.92 6.29 130.04 6.29"/><rect class="cls-1" x="121.77" y="6.29" width="5.58" height="27.89"/><path class="cls-1" d="M77.95,6.29v5.58h-19.52c-1.54,0-2.79,1.25-2.79,2.79s1.25,2.79,2.79,2.79h11.15c4.62,0,8.37,3.75,8.37,8.37s-3.75,8.36-8.37,8.36h-19.52v-5.58h19.52c1.54,0,2.79-1.25,2.79-2.79s-1.25-2.79-2.79-2.79h-11.16c-4.62,0-8.36-3.75-8.36-8.37s3.75-8.37,8.36-8.37h19.52Z"/><polygon class="cls-1" points="188.49 6.29 177.34 6.29 171.76 6.29 160.61 6.29 160.61 11.87 171.76 11.87 171.76 34.17 177.34 34.17 177.34 11.87 188.49 11.87 188.49 6.29"/><path class="cls-2" d="M240.43,6.29l-10.12,25.3c-.63,1.56-2.14,2.59-3.82,2.59s-3.2-1.03-3.82-2.59l-4.22-10.55c-.11-.29-.53-.29-.64,0l-4.22,10.55c-.62,1.56-2.14,2.59-3.82,2.59s-3.2-1.03-3.82-2.59l-10.12-25.3h5.58l8.37,20.91,5.31-13.27c.5-1.25,1.71-2.07,3.06-2.07s2.56.82,3.06,2.07l5.31,13.27,8.37-20.91h5.58Z"/><path class="cls-1" d="M124.56,6.29l-10.12,25.3c-.63,1.56-2.14,2.59-3.82,2.59s-3.2-1.03-3.82-2.59l-4.22-10.55c-.11-.29-.53-.29-.64,0l-4.22,10.55c-.62,1.56-2.14,2.59-3.82,2.59s-3.2-1.03-3.82-2.59l-10.12-25.3h5.58l8.37,20.91,5.31-13.27c.5-1.25,1.71-2.07,3.06-2.07s2.56.82,3.06,2.07l5.31,13.27,8.37-20.91h5.58Z"/><polygon class="cls-2" points="283.46 6.29 273.9 22.22 271.51 26.21 266.73 34.17 261.16 34.17 268.33 22.22 255.58 6.29 261.16 6.29 270.72 18.24 277.89 6.29 283.46 6.29"/></svg>